<svg 
 xmlns="http://www.w3.org/2000/svg"
 xmlns:xlink="http://www.w3.org/1999/xlink"
 width="11px" height="21px">
<defs>
<filter id="Filter_0">
    <feFlood flood-color="rgb(110, 119, 74)" flood-opacity="1" result="floodOut" />
    <feComposite operator="atop" in="floodOut" in2="SourceGraphic" result="compOut" />
    <feBlend mode="normal" in="compOut" in2="SourceGraphic" />
</filter>

</defs>
<g filter="url(#Filter_0)">
<path fill-rule="evenodd"  fill="rgb(0, 0, 0)"
 d="M10.586,0.004 L7.947,-0.001 C4.983,-0.001 3.068,2.028 3.068,5.167 L3.068,7.551 L0.415,7.551 C0.186,7.551 0.000,7.742 0.000,7.979 L0.000,11.431 C0.000,11.668 0.186,11.860 0.415,11.860 L3.067,11.860 L3.067,20.572 C3.067,20.808 3.253,21.000 3.482,21.000 L6.943,21.000 C7.173,21.000 7.358,20.808 7.358,20.572 L7.358,11.860 L10.460,11.860 C10.689,11.860 10.875,11.668 10.875,11.431 L10.876,7.979 C10.876,7.865 10.832,7.756 10.754,7.676 C10.677,7.596 10.571,7.551 10.461,7.551 L7.358,7.551 L7.358,5.530 C7.358,4.559 7.583,4.067 8.808,4.067 L10.585,4.066 C10.814,4.066 11.000,3.874 11.000,3.638 L11.000,0.432 C11.000,0.196 10.814,0.004 10.586,0.004 Z"/>
</g>
</svg>