<svg 
 xmlns="http://www.w3.org/2000/svg"
 xmlns:xlink="http://www.w3.org/1999/xlink"
 width="21px" height="20px">
<defs>
<filter id="Filter_0">
    <feFlood flood-color="rgb(255, 255, 255)" flood-opacity="1" result="floodOut" />
    <feComposite operator="atop" in="floodOut" in2="SourceGraphic" result="compOut" />
    <feBlend mode="normal" in="compOut" in2="SourceGraphic" />
</filter>

</defs>
<g filter="url(#Filter_0)">
<path fill-rule="evenodd"  fill="rgb(0, 0, 0)"
 d="M19.844,18.980 L14.985,14.119 C16.288,12.621 17.078,10.665 17.078,8.527 C17.078,3.823 13.251,-0.001 8.551,-0.001 C3.847,-0.001 0.025,3.827 0.025,8.527 C0.025,13.228 3.851,17.055 8.551,17.055 C10.688,17.055 12.644,16.266 14.142,14.962 L19.002,19.822 C19.117,19.937 19.272,20.000 19.423,20.000 C19.574,20.000 19.729,19.942 19.844,19.822 C20.075,19.592 20.075,19.210 19.844,18.980 ZM1.218,8.527 C1.218,4.483 4.508,1.197 8.547,1.197 C12.591,1.197 15.876,4.488 15.876,8.527 C15.876,12.567 12.591,15.862 8.547,15.862 C4.508,15.862 1.218,12.572 1.218,8.527 Z"/>
</g>
</svg>