<svg 
 xmlns="http://www.w3.org/2000/svg"
 xmlns:xlink="http://www.w3.org/1999/xlink"
 width="16px" height="17px">
<defs>
<filter id="Filter_0">
    <feFlood flood-color="rgb(110, 119, 74)" flood-opacity="1" result="floodOut" />
    <feComposite operator="atop" in="floodOut" in2="SourceGraphic" result="compOut" />
    <feBlend mode="normal" in="compOut" in2="SourceGraphic" />
</filter>

</defs>
<g filter="url(#Filter_0)">
<path fill-rule="evenodd"  fill="rgb(0, 0, 0)"
 d="M15.292,6.110 L10.885,5.698 C10.607,5.673 10.367,5.498 10.254,5.235 L8.675,1.451 C8.423,0.827 7.526,0.827 7.274,1.451 L5.708,5.235 C5.607,5.498 5.355,5.673 5.077,5.698 L0.670,6.110 C0.014,6.172 -0.251,6.984 0.241,7.421 L3.562,10.306 C3.776,10.493 3.865,10.768 3.802,11.042 L2.804,15.088 C2.653,15.726 3.347,16.250 3.928,15.913 L7.602,13.777 C7.842,13.640 8.133,13.640 8.372,13.777 L12.047,15.913 C12.627,16.250 13.322,15.738 13.170,15.088 L12.186,11.042 C12.122,10.768 12.211,10.493 12.425,10.306 L15.746,7.421 C16.226,6.984 15.948,6.172 15.292,6.110 Z"/>
</g>
</svg>