<svg 
 xmlns="http://www.w3.org/2000/svg"
 xmlns:xlink="http://www.w3.org/1999/xlink"
 width="22px" height="18px">
<defs>
<filter id="Filter_0">
    <feFlood flood-color="rgb(110, 119, 74)" flood-opacity="1" result="floodOut" />
    <feComposite operator="atop" in="floodOut" in2="SourceGraphic" result="compOut" />
    <feBlend mode="normal" in="compOut" in2="SourceGraphic" />
</filter>

</defs>
<g filter="url(#Filter_0)">
<path fill-rule="evenodd"  fill="rgb(0, 0, 0)"
 d="M21.393,0.332 C20.520,0.853 19.554,1.231 18.525,1.436 C17.702,0.551 16.530,-0.000 15.232,-0.000 C12.739,-0.000 10.718,2.035 10.718,4.544 C10.718,4.900 10.758,5.247 10.835,5.579 C7.084,5.390 3.758,3.580 1.532,0.830 C1.144,1.501 0.922,2.281 0.922,3.115 C0.922,4.692 1.720,6.083 2.929,6.898 C2.190,6.873 1.494,6.668 0.885,6.327 L0.885,6.384 C0.885,8.586 2.441,10.422 4.505,10.841 C4.127,10.944 3.728,11.001 3.316,11.001 C3.025,11.001 2.743,10.971 2.466,10.918 C3.041,12.724 4.707,14.038 6.681,14.075 C5.137,15.294 3.190,16.020 1.077,16.020 C0.712,16.020 0.353,15.998 -0.000,15.958 C1.998,17.246 4.369,18.000 6.918,18.000 C15.220,18.000 19.759,11.074 19.759,5.068 L19.744,4.478 C20.629,3.841 21.396,3.040 22.000,2.129 C21.190,2.490 20.322,2.736 19.409,2.845 C20.341,2.283 21.055,1.391 21.393,0.332 Z"/>
</g>
</svg>